<svg width="135" height="136" viewBox="0 0 135 136" fill="none" xmlns="http://www.w3.org/2000/svg">
<g id="Frame 2">
<g clip-path="url(#clip0_5730_9695)">
<rect width="135" height="136" rx="67.5" fill="black"/>
<g id="Vector">
<path fill-rule="evenodd" clip-rule="evenodd" d="M72.0808 97.4822L72.0367 97.5285L71.913 97.6582C71.9544 97.6151 71.9956 97.5718 72.0367 97.5285C72.0514 97.5131 72.0661 97.4976 72.0808 97.4822ZM71.4164 98.172L71.2575 98.3349L71.3166 98.2744L71.4164 98.172ZM62.7768 107.658C62.7633 107.684 62.7498 107.711 62.7364 107.737C62.7085 107.791 62.6809 107.845 62.6541 107.899L62.7768 107.658ZM45.9448 140.998L45.3631 141.024L45.58 141.014L45.9448 140.998Z" fill="white"/>
<path d="M83.8647 62.7145C83.8471 62.7758 83.83 62.8352 83.8133 62.8924C83.8001 62.9377 83.7871 62.9816 83.7743 63.024C83.7656 63.053 83.7569 63.0814 83.7483 63.1089L83.7295 63.1689C83.7079 63.2363 83.6869 63.2986 83.6662 63.3553C83.6543 63.388 83.6424 63.4188 83.6306 63.4476C83.6113 63.4948 83.5921 63.5365 83.573 63.5722C83.555 63.6057 83.5371 63.6339 83.5191 63.6563C83.4897 63.6928 83.4602 63.7281 83.4306 63.7624C83.4131 63.7827 83.3956 63.8027 83.3781 63.8224C83.3406 63.8645 83.3031 63.9053 83.2659 63.9451C83.2367 63.9763 83.2078 64.0068 83.179 64.037L82.8876 64.3555L82.7855 64.4759C82.7421 64.5318 82.7007 64.59 82.6615 64.6515C82.6321 64.6977 82.6041 64.7458 82.5775 64.7964C82.565 64.82 82.5529 64.8442 82.5412 64.869L82.4574 65.0732C82.4396 65.1241 82.423 65.1773 82.408 65.2332L82.3723 65.2889L82.2365 65.5135L82.1583 65.6382L81.8827 66.0784L81.6701 66.4186L81.2331 67.12L81.1203 67.3016L81.0044 67.4881C80.907 67.6452 80.8106 67.8008 80.7151 67.955C80.6103 68.1244 80.5066 68.2922 80.4041 68.4583C80.2893 68.6444 80.176 68.8284 80.0642 69.0103L79.639 69.7036C79.5181 69.9014 79.399 70.0965 79.2817 70.2892L78.8435 71.0108C78.696 71.2545 78.5516 71.494 78.4101 71.7293L77.9697 72.4642C77.8776 72.6186 77.7868 72.7711 77.6973 72.9217L77.3105 73.5759L77.1688 73.8164L77.0321 73.994L76.856 74.2229L76.6304 74.516L76.2836 74.9667L75.6195 75.7352L75.3735 76.0054C75.2845 76.1032 75.1966 76.2 75.1095 76.296C71.4461 80.3347 69.4387 82.7836 68.4671 84.2449L67.1219 85.9431C65.4462 87.7512 64.031 89.309 62.8417 90.65L62.2125 91.3634C61.9196 91.6972 61.6421 92.0163 61.3793 92.3213L60.045 93.4013C59.5843 93.6678 59.1188 93.9237 58.7087 94.1934C58.6338 94.2427 58.5606 94.2925 58.4897 94.3429L57.126 95.0492C57.0022 95.0901 56.8738 95.131 56.7405 95.1709C56.0416 95.38 55.2979 95.5356 54.6465 95.7424L54.5427 95.7313L54.125 95.6864L53.9087 95.6632L53.6646 95.637L53.2993 95.5663L52.7911 95.4679L52.4944 95.4183C52.4227 95.3971 52.3504 95.3762 52.2775 95.3557L52.063 95.2967C51.9744 95.273 51.8849 95.2498 51.7944 95.2271L51.4065 95.1336C50.9569 95.028 50.5072 94.9291 50.0593 94.8373L49.5899 94.5895C49.5008 94.4712 49.4187 94.3398 49.3484 94.1934C49.2792 94.0494 49.2215 93.891 49.1799 93.7164C49.1093 93.4204 49.1443 93.1836 49.238 92.9865C49.3734 92.7017 49.6311 92.4997 49.8701 92.3213C49.9686 92.3294 50.0755 92.3327 50.1912 92.3309C50.3746 92.328 50.5802 92.3122 50.8102 92.2824C50.967 92.2621 51.1351 92.2352 51.3153 92.2015L51.8981 92.0779C52.0504 92.0422 52.2098 92.0025 52.3765 91.9587C52.5254 91.9195 52.6801 91.877 52.8408 91.8311C52.9289 91.8059 53.0151 91.7808 53.0995 91.7556C53.2975 91.6965 53.4857 91.6372 53.6646 91.578C53.8803 91.5065 54.0824 91.4349 54.2717 91.3634C54.4175 91.3082 54.5558 91.2532 54.6867 91.1982L55.1281 91.0003C55.3291 90.9038 55.5089 90.8077 55.6692 90.7125C55.8359 90.6135 55.9815 90.5153 56.1083 90.4183C56.3013 90.2707 56.4506 90.1259 56.5635 89.9852C56.6512 89.876 56.717 89.7692 56.7644 89.6655C56.8395 89.5011 56.8684 89.3444 56.865 89.1977C56.8624 89.0834 56.8401 88.9752 56.8048 88.8741C56.7524 88.7242 56.6713 88.5899 56.5826 88.475L56.3236 87.906L56.1937 87.3369L56.1083 86.6947V85.9431C56.2288 85.752 56.3332 85.5665 56.4203 85.3877C56.515 85.1935 56.5894 85.0073 56.642 84.8308C56.7044 84.621 56.7362 84.4249 56.7347 84.2449C56.7329 84.0161 56.6775 83.8136 56.5635 83.6427C56.4848 83.5247 56.3781 83.4219 56.2418 83.336C56.1421 83.2731 56.0265 83.2193 55.8945 83.1753C55.5273 83.0529 55.1685 82.8559 54.813 82.5993C54.7709 82.5689 54.7288 82.5377 54.6867 82.5056V82.2368C54.7269 82.0991 54.7695 81.9602 54.813 81.8212C54.8397 81.736 54.8668 81.6507 54.8938 81.5657L55.0299 81.1354C55.0949 80.9264 55.1561 80.7217 55.2077 80.5255C55.4294 80.1742 55.5619 79.8809 55.6209 79.6333C55.6954 79.3205 55.6526 79.0806 55.5242 78.8894C55.4149 78.7266 55.2436 78.599 55.0299 78.4915C54.9136 78.433 54.7847 78.3804 54.6465 78.3313L54.4528 77.8221C54.428 77.6796 54.3873 77.5319 54.3293 77.3789L54.2717 77.2385C54.7084 76.8427 55.0374 76.5005 55.2748 76.2027C55.3734 76.079 55.4561 75.963 55.5242 75.854L55.6692 75.5853C55.703 75.5097 55.7285 75.4379 55.7464 75.3697C55.7749 75.2606 55.7838 75.1605 55.7751 75.0683C55.7575 74.881 55.6678 74.7259 55.5242 74.5923C55.4188 74.4942 55.2843 74.4077 55.1281 74.3286C54.9841 74.2557 54.8217 74.1891 54.6465 74.1255L53.7667 73.8407C53.5468 73.7727 53.3219 73.7021 53.0995 73.6248C52.8521 73.5387 52.6077 73.4443 52.3765 73.3355C51.9598 73.1393 51.5861 72.8965 51.3153 72.5725C51.185 72.4167 51.0786 72.2421 51.0025 72.0449L50.957 71.8709L50.8881 71.6117L50.8558 71.49C50.8029 71.3249 50.7394 71.1648 50.6658 71.0108L50.3167 70.4637C50.2772 70.3131 50.2354 70.1636 50.1912 70.0152C50.078 69.6342 49.9495 69.2606 49.8067 68.8948C49.6952 68.6096 49.5751 68.3291 49.4464 68.0535C49.2932 67.7252 49.1279 67.4038 48.9513 67.0899C48.7925 66.8077 48.6246 66.5315 48.4478 66.2615L48.0702 65.7125C47.9273 65.5144 47.7795 65.32 47.6269 65.1294L47.0093 64.4059C46.7621 64.1342 46.5049 63.8713 46.2381 63.6175L45.7457 63.1689C45.6331 63.0706 45.5189 62.9738 45.4033 62.8785L44.9456 62.5154C44.6625 62.2992 44.3716 62.0919 44.0732 61.8939C43.7923 61.7074 43.5047 61.5291 43.2111 61.3593C43.0206 61.2491 42.8275 61.1425 42.632 61.0395C42.3058 60.8677 41.9729 60.7061 41.6337 60.5549C41.3438 60.4257 41.0493 60.3041 40.7506 60.1904C40.3478 60.037 39.9373 59.8979 39.5201 59.7736C39.1272 59.6566 38.7284 59.5528 38.3244 59.4625C37.9521 59.3793 37.5754 59.3077 37.1948 59.2479C36.8082 59.1872 36.4175 59.1387 36.0234 59.1028C35.7043 59.0737 35.383 59.0529 35.0598 59.0406C34.6459 59.0247 34.2288 59.0228 33.8093 59.035C33.4331 59.0461 33.0548 59.0685 32.6751 59.1028C32.2804 59.1384 31.8841 59.1866 31.4866 59.2479C31.1825 59.2948 30.8778 59.3493 30.5726 59.4116C30.4923 59.428 30.4124 59.445 30.3327 59.4625C29.9282 59.5516 29.5321 59.6556 29.1446 59.7736C28.7384 59.8974 28.3417 60.0366 27.9547 60.1904C27.3339 60.4371 26.7379 60.7213 26.1679 61.0395C25.5665 61.3752 24.994 61.7486 24.4513 62.1554C23.853 62.604 23.291 63.0933 22.7668 63.6175L21.7633 64.6105C21.31 65.0246 20.8748 65.4677 20.4603 65.9398C20.0561 66.4003 19.6895 66.8785 19.3596 67.3719C19.187 67.6298 19.0245 67.8918 18.8718 68.1577L18.5126 68.8256C18.3055 69.2378 18.1207 69.658 17.9575 70.0848C17.8959 70.246 17.8373 70.4081 17.7819 70.5711L17.7177 70.7643C17.6851 70.8648 17.6536 70.9657 17.6233 71.0669L17.5582 71.2908C17.5254 71.407 17.4942 71.5237 17.4644 71.6407L17.3781 71.998C17.349 72.1258 17.3216 72.2541 17.2959 72.3826L17.2378 72.6906L17.2218 72.7822L17.1899 72.9756C17.1669 73.1212 17.146 73.2673 17.1272 73.4137L17.1083 73.5673C17.0939 73.6887 17.081 73.8103 17.0696 73.9322L17.0409 74.2783C17.0108 74.6982 16.9975 75.1203 17.0004 75.5436C17.0044 76.1254 17.0392 76.7094 17.1036 77.2929C17.1477 77.6929 17.2057 78.0927 17.2772 78.4915L17.3467 79.3957C17.4186 79.8695 17.5111 80.3419 17.6247 80.8113C17.7899 81.4942 17.9994 82.171 18.2543 82.8375C18.4645 83.3874 18.7056 83.9304 18.9779 84.4641C19.1258 84.7539 19.2829 85.0409 19.4493 85.3248C19.5909 85.5665 19.7393 85.8059 19.8944 86.0428C20.0764 86.3207 20.2653 86.5915 20.4607 86.8549L21.2212 87.8066C21.3589 87.9666 21.4991 88.1234 21.6418 88.2772C21.873 88.5262 22.1107 88.7669 22.3544 88.9992C22.5454 89.1814 22.7402 89.3584 22.9385 89.5302L23.857 90.2706C24.0603 90.4229 24.2667 90.5702 24.4759 90.7125C24.7245 90.8815 24.9771 91.0434 25.2334 91.1982C25.5608 91.3958 25.8942 91.5816 26.2329 91.7556C26.6025 91.9454 26.9785 92.1211 27.3599 92.2824C27.751 92.4478 28.1479 92.5981 28.5495 92.7331L29.3724 92.9865C29.5831 93.0455 29.7948 93.1004 30.0075 93.1511C30.0878 93.233 30.167 93.3165 30.2445 93.4013C30.3381 93.5037 30.4292 93.608 30.5168 93.7139C30.597 93.8108 30.6743 93.909 30.7477 94.0081C30.8891 94.1992 31.0164 94.3938 31.1233 94.5895C31.3133 94.9373 31.2332 95.4966 31.0619 96.1121C31.0085 96.3039 30.9462 96.5011 30.8805 96.699C30.7598 97.0627 30.6274 97.4289 30.5168 97.7686L30.3449 98.3606C30.3311 98.4182 30.3189 98.4741 30.3085 98.5282L30.2776 98.734L30.2278 98.9224C30.1965 98.9655 30.1655 99.0088 30.1347 99.0521L30.0513 99.1736L29.8913 99.4065L29.1852 100.55C28.9194 101.023 28.6764 101.509 28.4573 102.005C28.2849 102.396 28.1272 102.794 27.9848 103.198C27.8099 103.694 27.6581 104.199 27.5302 104.711C27.3998 105.233 27.2944 105.763 27.2148 106.3C27.0874 107.158 27.0263 108.031 27.0357 108.914C27.0402 109.347 27.0618 109.783 27.101 110.221C27.1399 110.655 27.1961 111.091 27.2701 111.528C27.307 111.745 27.3484 111.963 27.3942 112.181L27.4579 112.471C27.4743 112.543 27.4913 112.615 27.5087 112.687L27.5721 112.921L27.6051 113.226L27.6339 113.488L27.6495 113.63C27.6682 113.798 27.6873 113.969 27.7069 114.142L28.1019 117.409C28.1408 117.711 28.1809 118.016 28.222 118.324L28.3397 119.173L28.7994 122.28L28.9162 123.018C28.9558 123.259 28.996 123.501 29.0369 123.741L29.3202 125.331L29.4552 126.065C29.4748 126.167 29.4945 126.269 29.5144 126.371C29.5318 126.461 29.5493 126.55 29.5668 126.638C29.6048 126.83 29.6432 127.022 29.6821 127.211L29.7128 127.489L29.8581 128.608L29.9949 129.35L30.0201 129.486C30.0292 129.615 30.0388 129.743 30.0489 129.87L30.2257 131.488L30.2631 131.83L30.3004 132.171L30.3286 132.41L30.3004 133.046L30.2898 133.12L30.2147 133.65L30.1395 134.18L30.0489 134.819L29.805 135.707L29.4545 137.938C29.4664 138.198 29.4942 138.469 29.5404 138.744C29.5981 139.086 29.6846 139.432 29.805 139.765C29.8746 139.958 29.9556 140.146 30.0489 140.325C30.1833 140.585 30.3433 140.827 30.5318 141.043C30.8442 141.4 31.2351 141.684 31.7178 141.847C31.7817 141.868 31.8473 141.888 31.9145 141.905C32.1036 141.954 32.3058 141.985 32.5216 141.996C32.6998 142.005 32.9993 142 33.4017 141.983C33.5709 141.975 33.7584 141.966 33.9626 141.954C34.2015 141.941 34.4635 141.924 34.7463 141.905L34.9499 141.891L35.0113 141.886L35.0167 141.886L35.1535 141.876L36.1319 141.791L36.812 141.731L37.4991 141.671L38.3219 141.6L39.1342 141.529L39.6145 141.487L40.3135 141.426L40.7886 141.382C40.9964 141.362 41.2062 141.341 41.4178 141.319L41.9705 141.263L42.0707 141.252L42.3421 141.224C42.5012 141.207 42.661 141.191 42.8216 141.174L43.1614 141.137L43.4026 141.112L43.5401 141.105L44.2299 141.072L44.5109 141.059C44.6652 141.053 44.82 141.047 44.9752 141.04L45.3631 141.024L45.9448 140.998L46.2417 140.985L46.4441 140.975L46.6034 140.968C46.7393 140.962 46.8754 140.955 47.0116 140.949L47.8707 140.905L48.0162 140.898L48.1927 140.889L48.2827 140.884L48.7673 140.858C48.9517 140.848 49.1359 140.838 49.3198 140.827L50.2395 140.773L50.5911 140.751L51.025 140.724L51.5869 140.688L51.8981 140.667C51.9789 140.662 52.0596 140.656 52.1401 140.651C52.1825 140.648 52.225 140.645 52.2673 140.642L53.1787 140.576L53.4449 140.556L54.5121 140.47L54.7423 140.451L55.451 140.389C55.5993 140.375 55.7462 140.362 55.8915 140.348L56.1707 140.32L57.538 140.175L58.3711 140.077C58.5571 140.054 58.7382 140.03 58.9142 140.005L59.2875 139.946L60.1238 139.812L60.2699 139.789L60.8618 139.675C60.9501 139.656 61.0352 139.637 61.117 139.618L61.5534 139.503C61.6407 139.478 61.7223 139.452 61.7978 139.426C61.8819 139.397 61.9584 139.368 62.0272 139.338C62.171 139.276 62.2809 139.213 62.354 139.148C62.4166 139.092 62.4522 139.036 62.459 138.978C62.4657 138.921 62.455 138.843 62.4278 138.744C62.391 138.61 62.3241 138.439 62.2296 138.235L62.0798 137.927C62.0628 137.894 62.0453 137.86 62.0272 137.825L61.9915 137.694L61.9362 137.491L61.9067 137.383L61.839 137.135L61.8184 137.059L61.7978 136.984L61.7598 136.787L61.6964 136.46L61.647 136.205L61.5817 135.868L61.5506 135.707L61.5442 135.554L61.534 135.313L61.5086 134.731L61.4884 134.277L61.4647 133.746L61.4561 133.554L61.4502 133.425L61.4322 133.032L61.409 132.531L61.3861 132.041L61.3676 131.649L61.3508 131.461L61.3216 131.132L61.3019 130.912L61.2656 130.505L61.2222 130.018L61.2136 129.922L61.205 129.825L61.2001 129.595L61.1947 129.34L61.1887 129.06L61.1811 128.702L61.1721 128.284L61.1662 128.003L61.1585 127.645L61.1487 127.186L61.1362 126.864L61.1282 126.701L61.1116 126.363L61.0923 125.971L61.0643 125.404L61.0539 125.194L61.0459 125.031L61.0405 124.922L61.0341 124.792L61.028 124.669L61.0204 124.516L61.0131 124.368L61.0037 124.178L60.9921 123.944L60.98 123.699L60.9676 123.449L60.9537 123.168L60.9421 122.933L60.9312 122.714L60.8999 122.08L60.8951 121.983L60.8769 121.616L60.8678 121.432L60.8516 121.105L60.8365 120.799L60.8269 120.605L60.8083 120.227L60.7863 119.779L60.7737 119.523L60.7579 119.2L60.7459 118.955L60.7342 118.716L60.72 118.425L60.6707 117.409L60.6562 117.109L60.6325 116.612L60.6158 116.26L60.6012 115.953L60.6105 115.821L60.63 115.545L60.6582 115.146L60.683 114.795L60.705 114.483L60.7263 114.181L60.7557 113.766L60.7851 113.349L60.799 113.151C60.8047 113.115 60.8102 113.079 60.8155 113.043C60.8271 112.965 60.8381 112.888 60.8485 112.81C60.8688 112.659 60.887 112.507 60.9031 112.356C60.9158 112.236 60.9273 112.116 60.9374 111.996L60.9957 111.812L61.0586 111.613L61.1156 111.433L61.1746 111.246L61.2388 111.044L61.3047 110.836L61.4021 110.528L61.469 110.317L61.5686 110.096C61.6124 110.016 61.6563 109.933 61.7005 109.848L61.8583 109.536L61.9188 109.413L61.9758 109.295L61.9944 109.257L62.1911 108.85L62.2474 108.733L62.307 108.609C62.3454 108.529 62.3844 108.448 62.4241 108.367C62.4854 108.24 62.5483 108.112 62.6131 107.981L62.6541 107.899C62.6809 107.845 62.7085 107.791 62.7364 107.737L62.7768 107.658L62.78 107.652C62.8215 107.57 62.8627 107.487 62.9059 107.405L62.9608 107.3C63.0075 107.211 63.0551 107.122 63.1039 107.032L63.1308 106.983C63.1614 106.927 63.1923 106.87 63.2237 106.814C63.2731 106.725 63.3236 106.636 63.3753 106.546C63.4072 106.491 63.4396 106.435 63.4724 106.379L63.5187 106.301C63.5504 106.248 63.5824 106.194 63.6149 106.141L63.661 106.066C63.6865 106.024 63.7122 105.983 63.738 105.941C63.7691 105.892 63.8003 105.842 63.8317 105.793C63.8912 105.699 63.9514 105.606 64.0119 105.514C64.0973 105.384 64.1835 105.256 64.2703 105.129L64.3411 105.026C64.4013 104.938 64.4617 104.851 64.5222 104.765L64.9715 104.316L65.0829 104.216L65.0926 104.208L65.2294 104.088L65.2932 104.032L65.4921 103.857L65.7316 103.644L65.8214 103.564L65.9446 103.453C66.0379 103.369 66.1321 103.284 66.2273 103.198L66.307 103.126L66.4669 102.98L66.659 102.804L67.1622 102.337L67.327 102.183L68.4115 101.156L68.4993 101.072L68.796 100.785L69.0554 100.533L69.1736 100.418L69.2374 100.356L69.285 100.309L69.6458 99.9546C69.7228 99.8786 69.7998 99.8025 69.8767 99.7261L70.2425 99.3619L70.3906 99.2135L70.4926 99.1111L70.6169 98.9859L70.7278 98.8739L70.949 98.6497L71.0429 98.5541L71.1743 98.4201L71.2575 98.3349L71.4164 98.172L71.5546 98.0296C71.639 97.9426 71.723 97.8556 71.8068 97.7686L71.913 97.6582L72.0367 97.5285L72.0808 97.4822L72.1176 97.4436L72.2737 97.2799L72.4966 97.0456L72.6276 96.9067L72.8099 96.7121L73.0104 96.4971L73.2016 96.2912L73.3254 96.1569L73.4267 96.0465L73.7262 95.7176L73.7638 95.6761L73.8404 95.5915L73.9637 95.4545C74.0432 95.3658 74.1219 95.2777 74.1996 95.1902L74.2777 95.0855L74.3558 94.9808C74.3994 94.9502 74.4588 94.9053 74.5358 94.8447L74.714 94.7022L74.7656 94.6604C74.7944 94.6369 74.8251 94.6093 74.8575 94.5776L75.1697 94.217C75.19 94.1909 75.2107 94.1639 75.2318 94.136L75.4239 93.8721C75.4478 93.8383 75.472 93.8037 75.4965 93.7681L75.6895 93.4829C75.7138 93.4462 75.7384 93.4089 75.7632 93.3708C75.794 93.3238 75.8252 93.2757 75.8569 93.2265L75.9277 93.1365C75.9721 93.0798 76.0157 93.0236 76.0585 92.9681L76.3771 92.5431L76.4042 92.5065L76.4174 92.4886L76.4367 92.4622C76.4688 92.4178 76.5003 92.3739 76.531 92.3306L76.835 91.8814L76.8561 91.8494L76.8569 91.8482L76.8822 91.8097C76.9177 91.7537 76.9516 91.699 76.9838 91.6456L77.2114 91.2286L77.2577 91.1379C77.2828 91.0834 77.3052 91.031 77.3247 90.9808L77.3547 90.899C77.3693 90.8565 77.3816 90.8158 77.3916 90.7769L77.4435 90.6571L77.5307 90.4559L77.6179 90.2546L77.7091 90.0921L77.7467 90.0249L77.8236 89.8869L77.9976 89.5745L78.0927 89.4027L78.1793 89.2458L78.4322 88.7853L78.4671 88.7213L78.5961 88.4849L78.6606 88.3664L78.7203 88.2565L78.8077 88.0953C78.8671 87.9856 78.9267 87.8751 78.9866 87.764L79.1285 87.5007L79.2105 87.3482L79.4393 86.9207C79.5057 86.7962 79.5724 86.6712 79.6392 86.5457L79.9208 86.0152L80.0889 85.6971L80.1522 85.5772L80.4498 85.0113L80.4991 84.9173L80.6163 84.6937L80.7486 84.4406C80.8299 84.2851 80.9111 84.1293 80.9923 83.9735L81.1103 83.7467L81.1726 83.6267L81.5541 82.8906L81.636 82.732L81.7005 82.6071L82.023 81.981L82.1544 81.7253L82.3121 81.4177L82.5125 81.0262L82.6341 80.7885L82.8137 80.4365L82.994 80.0825L83.114 79.8466L83.2071 79.6633L83.2133 79.651L83.4915 79.1029L83.5356 79.0158L83.7191 78.6531L83.8788 78.337L83.9908 78.115L84.1342 77.8304L84.2775 77.5458L84.3266 77.4482L84.4517 77.1993L84.5319 77.0396L84.7468 76.6111L84.8885 76.3282L84.953 76.1991L85.0795 75.9459L85.2061 75.6926L85.2296 75.6456L85.3243 75.4556L85.3875 75.329L85.6052 74.8915L85.6483 74.8049L85.8024 74.4949L85.9098 74.2783L85.9451 74.2072L85.9803 74.136L86.0848 74.0126L86.1638 73.9193L86.3084 73.7484L86.2402 73.8164C86.267 73.7887 86.2936 73.7615 86.3199 73.7348C86.3797 73.6743 86.4382 73.6167 86.4954 73.562C86.5211 73.5375 86.5465 73.5135 86.5717 73.4902C86.5971 73.4667 86.6222 73.4438 86.647 73.4215C86.719 73.3569 86.7887 73.2977 86.8559 73.2442C86.8767 73.2276 86.8974 73.2115 86.9177 73.1961C86.9411 73.1783 86.9642 73.1612 86.987 73.1449C87.0252 73.1176 87.0624 73.0924 87.0987 73.0694C87.1494 73.0373 87.1995 73.0046 87.2489 72.9713C87.2908 72.943 87.3323 72.9144 87.3733 72.8853L87.7531 72.593L87.8077 72.547C87.8429 72.5169 87.8777 72.4866 87.912 72.4559L88.1474 72.2319L88.2146 72.1659C88.2449 72.1348 88.2748 72.1034 88.3042 72.0718L88.5331 71.8111C88.5731 71.7626 88.6122 71.7137 88.6504 71.6643C88.6909 71.6119 88.7304 71.559 88.7689 71.5056C88.8051 71.4552 88.8404 71.4044 88.8747 71.3532L89.0494 71.0758C89.0832 71.0184 89.1158 70.9606 89.1473 70.9025L89.2102 70.7788L89.3461 70.4951C89.3588 70.4661 89.3711 70.437 89.3832 70.408L89.4549 70.2256C89.473 70.1769 89.4903 70.128 89.5068 70.079L89.5144 70.0553L89.5204 70.0363L89.5339 69.9935L89.561 69.9081C89.5722 69.8707 89.5828 69.8332 89.5931 69.7957L89.6663 69.7119L89.6878 69.6874C89.7032 69.6773 89.7185 69.6671 89.7338 69.6567L89.8204 69.5918L89.9483 69.496C89.9721 69.4765 89.9954 69.4567 90.0183 69.4367C90.0548 69.4046 90.0903 69.372 90.1246 69.3388L90.2082 69.2504L90.2917 69.162C90.3178 69.1318 90.343 69.1013 90.3672 69.0705L90.4749 68.9212L90.483 68.9094L90.4874 68.9034L90.5039 68.8794C90.5244 68.8475 90.544 68.8155 90.5626 68.7833L90.6109 68.6949C90.6139 68.6891 90.6169 68.6833 90.6198 68.6774C90.6223 68.6725 90.6248 68.6675 90.6273 68.6626L90.7636 68.5705L90.8999 68.4785L90.9754 68.4513L91.0509 68.4242L91.2118 68.3663L91.3546 68.3148L91.5866 68.2313L91.6464 68.2098L91.7613 68.1684L91.9378 68.1049L92.2723 67.9845L92.4581 67.9176L92.6154 67.861L92.7256 67.8213C92.7809 67.8014 92.8484 67.777 92.9247 67.7488L93.1221 67.674C93.1826 67.6505 93.2458 67.6254 93.3107 67.5989C93.3561 67.5803 93.4024 67.561 93.4491 67.5411C93.4893 67.5239 93.5298 67.5062 93.5703 67.4881L93.6691 67.4539L93.8054 67.4068L93.9866 67.3441L94.1678 67.2814L94.2087 67.2738L94.3795 67.2422L94.577 67.1944C94.6224 67.1787 94.6662 67.1598 94.7079 67.1381C94.729 67.1272 94.7495 67.1155 94.7695 67.1032L94.9618 66.948C94.9866 66.9222 95.0099 66.8951 95.0317 66.8668C95.0554 66.8361 95.0773 66.8039 95.0972 66.7706C95.1196 66.733 95.1395 66.694 95.1567 66.6537C95.1864 66.5846 95.2082 66.5117 95.2213 66.4364C95.2289 66.3923 95.2336 66.3473 95.2351 66.3018L95.2253 66.1282C95.2229 66.1116 95.22 66.095 95.2168 66.0784C95.2148 66.0685 95.2127 66.0586 95.2104 66.0488C95.2008 66.0071 95.1887 65.9666 95.1742 65.9274C95.1532 65.8708 95.1274 65.817 95.0972 65.7665C95.0772 65.733 95.0553 65.7009 95.0317 65.6703L94.9618 65.5894C94.9252 65.5515 94.8857 65.5166 94.8437 65.4851C94.8009 65.453 94.7554 65.4244 94.7079 65.3996C94.6508 65.3698 94.5905 65.3456 94.5281 65.3275L94.3795 65.2966C94.3395 65.2916 94.2989 65.2889 94.2579 65.2889L94.1678 65.303L94.1039 65.313L93.9866 65.3313L93.8715 65.3493L93.7703 65.3652L93.5685 65.3996L93.485 65.4151L93.353 65.4395L93.1388 65.4791L92.9247 65.5188L92.8411 65.5343L92.6925 65.5618L92.5372 65.5905L92.382 65.6192L92.3131 65.632L92.1487 65.6624L92.005 65.689L91.8524 65.7173L91.7195 65.7419L91.5866 65.7665L91.5233 65.7782L91.3546 65.8094L91.1864 65.8405L91.0182 65.8717L90.9562 65.8831L90.8282 65.9068L90.7725 65.9171L90.5673 65.9068L90.397 65.8834L90.2267 65.8599C90.1513 65.8471 90.0788 65.8401 90.0152 65.8405L89.9238 65.7554L89.8781 65.7129L89.7963 65.5618L89.7447 65.4151L89.6936 65.2889V65.2366V65.0732L89.6681 64.9852V64.869V64.7465L89.6936 64.6951L89.8324 64.5218L90.0152 64.4062L90.0868 64.3555L90.2086 64.2692L90.3304 64.1828L90.5413 64.0422L90.6261 63.9856L90.7169 63.925L91.0182 63.724L91.1562 63.632L91.2457 63.5722L91.4869 63.4113L91.5558 63.3633L91.8346 63.1689C91.8879 63.1239 91.9369 63.0754 91.9816 63.024L92.0754 62.9369L92.2664 62.7597L92.382 62.6525L92.516 62.5626L92.7606 62.3986L92.8748 62.322L93.0076 62.233L93.2064 62.0997L93.353 62.0014L93.5685 61.8569L93.823 61.6862L93.9502 61.6009L94.0774 61.5156L94.2264 61.4158L94.3753 61.3159L94.5077 61.2271L94.6401 61.1384L94.7177 61.0863L94.7953 61.0343L94.8628 60.989C94.8886 60.9717 94.9134 60.9536 94.9374 60.9347L95.0757 60.8059L95.1212 60.7529C95.1352 60.7355 95.1487 60.7178 95.1616 60.6998L95.2361 60.5774L95.2668 60.521C95.2792 60.4949 95.2905 60.4683 95.3009 60.4415L95.366 60.1968C95.3697 60.1727 95.3726 60.1485 95.3748 60.1243L95.3794 60.026V60.0133L95.3626 59.8403L95.3499 59.7591C95.3473 59.7475 95.3444 59.7359 95.3414 59.7244C95.3303 59.6823 95.3169 59.6407 95.3009 59.5996L95.2055 59.4082C95.1948 59.391 95.1837 59.374 95.1721 59.3572C95.1422 59.3141 95.11 59.2736 95.0757 59.2359L94.9566 59.1221C94.9406 59.1089 94.9242 59.0961 94.9076 59.0838L94.8355 59.0344C94.7974 59.0104 94.758 58.9887 94.7177 58.9694L94.5077 58.8927C94.4992 58.8905 94.4908 58.8884 94.4823 58.8864L94.3753 58.8663C94.3422 58.8617 94.3089 58.8584 94.2755 58.8566L94.1185 58.8587C94.0686 58.8628 94.0189 58.87 93.9696 58.8806L93.8073 58.9279C93.7569 58.9467 93.7072 58.9692 93.6588 58.9954L93.3963 59.1653L93.2727 59.2482L93.2282 59.278L93.1311 59.3431L93.034 59.4082L92.9544 59.4616L92.8748 59.515L92.7486 59.5996L92.7035 59.6298L92.6071 59.6945L92.5108 59.7591L92.4192 59.8204L92.3277 59.8818L92.2202 59.9539L92.1126 60.026L92.0082 60.0961L91.9037 60.1661L91.8179 60.2236L91.6893 60.3099L91.6094 60.3634L91.5296 60.417L91.4521 60.469L91.3745 60.521L91.2674 60.5928L91.1876 60.6463L90.9763 60.71L90.9241 60.6672C90.9121 60.6414 90.8984 60.6166 90.8832 60.5928C90.859 60.5547 90.8309 60.5193 90.7996 60.4871L90.719 60.417V60.373L90.8766 60.21L90.9537 60.1487L91.0307 60.0874L91.1078 60.026L91.1984 59.9539L91.289 59.8818L91.388 59.8031L91.4869 59.7244L91.6437 59.5996L91.7296 59.5313L92.0029 59.3138L92.1233 59.2179L92.2437 59.1221L92.3312 59.0526L92.5108 58.9096L92.6071 58.833L92.6783 58.7763L92.7496 58.7196L92.8283 58.657L92.907 58.5944L92.9705 58.5438L93.034 58.4933L93.1915 58.368L93.2811 58.2967L93.3707 58.2254L93.5127 58.1123L93.5738 58.0637L93.6349 58.0151L93.7105 57.955L93.786 57.8949L93.8493 57.8445L94.0106 57.7114L94.0451 57.6822C94.0713 57.6567 94.0957 57.6299 94.1185 57.6021L94.1784 57.5136L94.248 57.3957C94.258 57.3742 94.2672 57.3524 94.2755 57.3303L94.3362 56.9521L94.334 56.8796C94.3296 56.8376 94.3225 56.7959 94.3127 56.7546L94.2755 56.6338C94.2484 56.5626 94.2126 56.4937 94.168 56.4287L94.0688 56.322L94.0192 56.2687L93.8493 56.1334C93.8355 56.1254 93.8215 56.1178 93.8073 56.1106L93.7105 56.0761L93.5738 56.0275L93.3992 56.0033C93.3724 56.0022 93.3456 56.0022 93.3188 56.0033L93.1935 56.0249L93.1309 56.0358L93.0683 56.0466C93.0018 56.0672 92.937 56.0952 92.8748 56.1307L92.5802 56.3504L92.4956 56.4177L92.4109 56.4851L92.3692 56.5183L92.2875 56.5833L92.1126 56.7224L92.0723 56.7546L91.9037 56.8887L91.832 56.9457L91.6437 57.0956L91.5811 57.1454L91.4474 57.2518L91.3136 57.3583L91.1866 57.4593L91.0596 57.5603L90.9127 57.6772L90.7658 57.7941L90.627 57.9046L90.4881 58.0151L90.427 58.0637L90.2966 58.1675L90.2629 58.1943L90.0918 58.3305L90.0447 58.368L89.9725 58.4254L89.9004 58.4828L89.8008 58.562L89.7602 58.5944L89.7054 58.638L89.5795 58.7763H89.4943L89.3442 58.6816L89.2852 58.6245V58.4933L89.3442 58.402L89.4192 58.3137L89.4943 58.2254L89.7299 57.9489L89.9004 57.7488L89.9322 57.7114L90.1222 57.4871L90.1994 57.3957L90.2655 57.3168L90.4087 57.1454C90.4425 57.1046 90.4759 57.0644 90.5086 57.0246L90.6578 56.8397L90.8069 56.6548C90.8905 56.5485 90.9654 56.4501 91.0286 56.3627L91.1097 56.2671L91.1908 56.1716L91.2923 56.0619L91.343 56.007L91.4932 55.8552L91.5811 55.7658L91.7613 55.5825C91.7721 55.5686 91.7825 55.5545 91.7925 55.5403L91.8964 55.3494C91.9146 55.3046 91.9294 55.2587 91.9407 55.2122L91.9663 55.0456C91.9684 55.0151 91.969 54.9846 91.9682 54.954C91.9678 54.9406 91.9672 54.9271 91.9663 54.9137C91.9632 54.8672 91.9568 54.8209 91.9471 54.7751C91.9402 54.743 91.9318 54.7111 91.9217 54.6796L91.8643 54.56L91.807 54.4404C91.7715 54.3868 91.7302 54.3358 91.6831 54.2884C91.6507 54.2559 91.6166 54.2262 91.5811 54.1992C91.5093 54.1445 91.4316 54.1011 91.3504 54.0689C91.3382 54.0641 91.3259 54.0595 91.3136 54.0552L91.1359 54.011C91.086 54.0035 91.0355 53.9998 90.9851 54C90.9489 54.0001 90.9127 54.0023 90.8766 54.0064C90.7917 54.0161 90.7078 54.037 90.6273 54.0689C90.6038 54.0782 90.5807 54.0884 90.5578 54.0996L90.427 54.1769C90.3941 54.2001 90.3622 54.2255 90.3316 54.2532L90.1379 54.4404L89.9725 54.601L89.8916 54.6796L89.8008 54.7678L89.6506 54.9137L89.5795 54.9827L89.4578 55.1008L89.3478 55.2077L89.2377 55.3146L89.2018 55.3494L89.0053 55.5403L88.9138 55.6291L88.8406 55.7003L88.6623 55.8734L88.5811 55.9522L88.4892 56.0414L88.3973 56.1307L88.3536 56.1732L88.3099 56.2156L88.2473 56.2687L88.1364 56.3627L88.0892 56.3963L87.9646 56.4851L87.9368 56.5047C87.8862 56.5403 87.8564 56.5609 87.8536 56.5616C87.8212 56.5704 87.783 56.5892 87.74 56.6169C87.6876 56.6505 87.628 56.6972 87.5626 56.7546L87.4187 56.8887L87.3883 56.9186C87.3694 56.9375 87.3501 56.9569 87.3306 56.9768L87.0434 57.2874L86.8671 57.4871L86.725 57.653L86.6759 57.7114L86.5151 57.9046L86.3693 58.0832L86.2786 58.1943L86.2534 58.2254C86.1597 58.3414 86.069 58.4548 85.9835 58.562L85.9199 58.6418L85.8433 58.7381C85.7963 58.7972 85.7515 58.8533 85.7095 58.9059L85.7036 58.9132L85.6719 58.9529L85.6407 58.9921C85.6241 59.013 85.608 59.0332 85.5924 59.0526C85.5404 59.1172 85.4949 59.1731 85.4574 59.2179C85.432 59.2482 85.4103 59.2735 85.3926 59.2931C85.3588 59.3305 85.3257 59.3689 85.2933 59.4082C85.2106 59.5084 85.1323 59.6142 85.0582 59.7244L84.9554 59.8913L84.7627 60.2236C84.7444 60.2585 84.7265 60.2936 84.7088 60.3289L84.6609 60.4288L84.5507 60.6672C84.5333 60.707 84.5161 60.747 84.4993 60.787L84.428 60.9677L84.2076 61.5759L84.2065 61.5793L84.1553 61.7337C84.1308 61.8103 84.1072 61.8862 84.0844 61.9609L84.0185 62.1806L83.9553 62.3986L83.8891 62.6293L83.8647 62.7145Z" fill="white"/>
</g>
<g id="Group 1638">
<path id="Star 7" d="M82.6847 23.3684L87.4079 29.9194L95.8974 27.4791L90.327 33.9681L95.0502 40.519L86.8843 37.9785L81.314 44.4674L81.8376 36.4083L73.6717 33.8678L82.1612 31.4275L82.6847 23.3684Z" fill="white"/>
<path id="Star 8" d="M110.511 31.843L111.658 37.8726L118.289 38.9206L112.367 41.5992L113.514 47.6288L108.707 43.2546L102.785 45.9331L105.736 40.5511L100.929 36.1769L107.56 37.2249L110.511 31.843Z" fill="white"/>
<path id="Star 9" d="M101.132 19.3718L103.691 21.837L107.175 20.1138L105.273 23.3606L107.832 25.8257L104.097 25.3672L102.195 28.614L101.789 25.0838L98.0544 24.6252L101.538 22.902L101.132 19.3718Z" fill="white"/>
</g>
</g>
</g>
<defs>
<clipPath id="clip0_5730_9695">
<rect width="135" height="136" rx="67.5" fill="white"/>
</clipPath>
</defs>
</svg>
